<svg width="144" height="144" viewBox="0 0 144 144" fill="none" xmlns="http://www.w3.org/2000/svg">
<path opacity="0.25" d="M72 144C111.765 144 144 111.765 144 72C144 32.2355 111.765 0 72 0C32.2355 0 0 32.2355 0 72C0 111.765 32.2355 144 72 144Z" fill="#657EFF"/>
<g filter="url(#filter0_d_6899_217848)">
<path d="M117.423 66.2172L77.7806 26.575C74.588 23.3825 69.4119 23.3825 66.2194 26.575L26.5772 66.2172C23.3847 69.4097 23.3847 74.5858 26.5772 77.7784L66.2194 117.421C69.4119 120.613 74.5881 120.613 77.7806 117.421L117.423 77.7784C120.615 74.5859 120.615 69.4097 117.423 66.2172Z" fill="white"/>
</g>
<path d="M69.2998 58.4026V76.7551C69.2998 78.2476 70.5073 79.4551 71.9998 79.4551C73.4923 79.4551 74.6998 78.2476 74.6998 76.7551V58.4026C74.6998 56.9101 73.4923 55.7026 71.9998 55.7026C70.5073 55.7026 69.2998 56.9101 69.2998 58.4026Z" fill="#B8CEFF"/>
<path d="M71.0548 82.8901H72.9448C73.9123 82.8901 74.6998 83.6776 74.6998 84.6451V86.5351C74.6998 87.5026 73.9123 88.2901 72.9448 88.2901H71.0548C70.0873 88.2901 69.2998 87.5026 69.2998 86.5351V84.6451C69.2998 83.6776 70.0873 82.8901 71.0548 82.8901Z" fill="#B8CEFF"/>
<defs>
<filter id="filter0_d_6899_217848" x="12.5826" y="12.5807" width="118.835" height="118.834" filterUnits="userSpaceOnUse" color-interpolation-filters="sRGB">
<feFlood flood-opacity="0" result="BackgroundImageFix"/>
<feColorMatrix in="SourceAlpha" type="matrix" values="0 0 0 0 0 0 0 0 0 0 0 0 0 0 0 0 0 0 127 0" result="hardAlpha"/>
<feOffset/>
<feGaussianBlur stdDeviation="5.8"/>
<feColorMatrix type="matrix" values="0 0 0 0 0.0823529 0 0 0 0 0.0980392 0 0 0 0 0.235294 0 0 0 0.25 0"/>
<feBlend mode="normal" in2="BackgroundImageFix" result="effect1_dropShadow_6899_217848"/>
<feBlend mode="normal" in="SourceGraphic" in2="effect1_dropShadow_6899_217848" result="shape"/>
</filter>
</defs>
</svg>
