<svg width="144" height="144" viewBox="0 0 144 144" fill="none" xmlns="http://www.w3.org/2000/svg">
<path d="M72 144C111.765 144 144 111.765 144 72C144 32.2355 111.765 0 72 0C32.2355 0 0 32.2355 0 72C0 111.765 32.2355 144 72 144Z" fill="#192159"/>
<g filter="url(#filter0_d_7044_226882)">
<path d="M72.0002 116.257C96.4429 116.257 116.258 96.4424 116.258 71.9997C116.258 47.557 96.4429 27.7422 72.0002 27.7422C47.5574 27.7422 27.7427 47.557 27.7427 71.9997C27.7427 96.4424 47.5574 116.257 72.0002 116.257Z" fill="#4D67E6"/>
</g>
<path d="M88.3649 85.0951H57.2774V57.2776C57.2774 56.3776 56.5424 55.6426 55.6424 55.6426C54.7424 55.6426 54.0073 56.3776 54.0073 57.2776V86.7301C54.0073 87.6301 54.7424 88.3651 55.6424 88.3651H88.3723C89.2723 88.3651 90.0073 87.6301 90.0073 86.7301C90.0073 85.8301 89.2723 85.0951 88.3723 85.0951H88.3649Z" fill="#3D50C3"/>
<path d="M86.7746 78.3823L76.5596 68.1673L84.3971 62.5648C85.3871 61.8523 86.7671 62.5648 86.7671 63.7873V78.3823H86.7746Z" fill="#243182"/>
<path d="M60.7423 66.8473L65.7598 63.0823C66.3598 62.6323 67.1923 62.6923 67.7173 63.2248L72.2623 67.7698L86.6773 82.1848H61.6348C60.8098 82.1848 60.1348 81.5098 60.1348 80.6848V68.0473C60.1348 67.5748 60.3598 67.1323 60.7348 66.8473H60.7423Z" fill="#243182"/>
<defs>
<filter id="filter0_d_7044_226882" x="16.1427" y="16.1422" width="111.715" height="111.715" filterUnits="userSpaceOnUse" color-interpolation-filters="sRGB">
<feFlood flood-opacity="0" result="BackgroundImageFix"/>
<feColorMatrix in="SourceAlpha" type="matrix" values="0 0 0 0 0 0 0 0 0 0 0 0 0 0 0 0 0 0 127 0" result="hardAlpha"/>
<feOffset/>
<feGaussianBlur stdDeviation="5.8"/>
<feColorMatrix type="matrix" values="0 0 0 0 0.0823529 0 0 0 0 0.0980392 0 0 0 0 0.235294 0 0 0 0.5 0"/>
<feBlend mode="normal" in2="BackgroundImageFix" result="effect1_dropShadow_7044_226882"/>
<feBlend mode="normal" in="SourceGraphic" in2="effect1_dropShadow_7044_226882" result="shape"/>
</filter>
</defs>
</svg>
