<svg width="127" height="28" viewBox="0 0 127 28" fill="none" xmlns="http://www.w3.org/2000/svg">
<path d="M72 3H74.5L85.5 19V18.9665V3H88V23H85.4856L74.5 7V23H72V3Z" fill="white"/>
<path d="M91 3H93.5L101.5 20L109.426 3H112V23H109.5V8L102.5 23H100.5L93.5 8V23H91.0044V3H91Z" fill="white"/>
<path d="M114 18.252L115.973 17.3495C116.514 19.4198 118.453 20.8399 120.631 20.7715C122.722 20.7715 124.538 19.6507 124.538 17.435C124.538 15.4417 123.084 14.5648 120.771 13.6666L119.461 13.1747C116.558 12.0241 114.799 10.4371 114.799 7.92624C114.799 4.93202 117.283 3.00289 120.474 3.00289C123.154 2.92161 125.577 4.56417 126.446 7.04937L124.603 7.97757C123.822 6.22809 122.539 5.163 120.531 5.163C118.632 5.163 117.182 6.20243 117.182 7.95191C117.182 9.31642 118.02 10.3858 120.365 11.2883L121.7 11.8059C124.966 13.0849 127 14.5135 127 17.5078C127 21.088 123.944 23 120.64 23C117.335 23 114.664 21.0409 114 18.252Z" fill="white"/>
<path d="M0 14C0 8.21053 4.73472 4 10 4C15.2653 4 20 8.21053 20 14C20 19.7895 15.2632 24 9.99788 24C4.73259 24 0 19.7895 0 14ZM16 14C16 10.5 13 8 9.99788 8C6.99575 8 4 10.5 4 14C4 17.5 6.99575 20 9.99788 20C13 20 16 17.5 16 14Z" fill="white"/>
<path d="M37 15.5C37 20 34 23 30.5 23C27 23 26 21 26 21V28H22V8H26V10C26 10 27 8 30.5 8C34 8 37 11 37 15.5ZM33 15.5C33 13.5 31.5 12 29.5 12C27.5 12 26 13.5 26 15.5C26 17.5 27.5 19 29.5 19C31.5 19 33 17.5 33 15.5Z" fill="white"/>
<path d="M52.883 17H42.5932C42.5932 18 43.9569 20 46.4364 20C48.9159 20 49.9076 18 49.9076 18L51.8912 20C51.8912 20 50.4035 23 46.4364 23C41.9733 23 38.75 20 38.75 15.5C38.75 11 42.4692 8 45.9405 8C49.4117 8 53.7722 10.3889 52.883 17ZM42.5932 14H49.2878C49.2878 13 47.9241 11.5 45.9405 11.5C43.9569 11.5 42.5932 13 42.5932 14Z" fill="white"/>
<path d="M69 14V23H65V15C65 13 63.5 12 62 12C60.5 12 59 13 59 15V23H55V8H59V10.5C60 9 61.5 8 63.5 8C67 8 69 10 69 14Z" fill="white"/>
</svg>
