<svg width="144" height="144" viewBox="0 0 144 144" fill="none" xmlns="http://www.w3.org/2000/svg">
<path opacity="0.25" d="M72 144C111.765 144 144 111.765 144 72C144 32.2355 111.765 0 72 0C32.2355 0 0 32.2355 0 72C0 111.765 32.2355 144 72 144Z" fill="#657EFF"/>
<g filter="url(#filter0_d_6899_217830)">
<path d="M72.0002 116.258C96.4429 116.258 116.258 96.4429 116.258 72.0002C116.258 47.5574 96.4429 27.7427 72.0002 27.7427C47.5574 27.7427 27.7427 47.5574 27.7427 72.0002C27.7427 96.4429 47.5574 116.258 72.0002 116.258Z" fill="white"/>
</g>
<path d="M73.635 70.365V54H72C62.0775 54 54 62.0775 54 72V73.635H70.365V90H72C81.9225 90 90 81.9225 90 72V70.365H73.635ZM80.0175 73.635C79.365 76.8375 76.8375 79.365 73.635 80.0175V73.635H80.0175ZM70.365 57.36V60.675C65.3625 61.395 61.395 65.355 60.675 70.365H57.36C58.1175 63.5475 63.5475 58.1175 70.3575 57.3675L70.365 57.36ZM63.9825 70.3575C64.635 67.155 67.1625 64.6275 70.365 63.975V70.3575H63.9825ZM73.635 86.6325V83.3175C78.6375 82.5975 82.605 78.6375 83.325 73.6275H86.64C85.8825 80.445 80.4525 85.875 73.6425 86.625L73.635 86.6325Z" fill="#D9E4FF"/>
<path d="M76.9121 67.0874H89.5646C87.7571 61.0199 82.9796 56.2349 76.9121 54.4199V67.0874Z" fill="#B8CEFF"/>
<path d="M67.0871 76.9121H54.4121C56.2271 82.9871 61.0121 87.7721 67.0871 89.5871V76.9121Z" fill="#B8CEFF"/>
<defs>
<filter id="filter0_d_6899_217830" x="16.1427" y="16.1427" width="111.715" height="111.715" filterUnits="userSpaceOnUse" color-interpolation-filters="sRGB">
<feFlood flood-opacity="0" result="BackgroundImageFix"/>
<feColorMatrix in="SourceAlpha" type="matrix" values="0 0 0 0 0 0 0 0 0 0 0 0 0 0 0 0 0 0 127 0" result="hardAlpha"/>
<feOffset/>
<feGaussianBlur stdDeviation="5.8"/>
<feColorMatrix type="matrix" values="0 0 0 0 0.0823529 0 0 0 0 0.0980392 0 0 0 0 0.235294 0 0 0 0.25 0"/>
<feBlend mode="normal" in2="BackgroundImageFix" result="effect1_dropShadow_6899_217830"/>
<feBlend mode="normal" in="SourceGraphic" in2="effect1_dropShadow_6899_217830" result="shape"/>
</filter>
</defs>
</svg>
